<svg xmlns="http://www.w3.org/2000/svg" width="1000" height="420" viewBox="0 0 1000 420" role="img" aria-labelledby="title desc">
  <title id="title">Synthetic v0.2 72-hour integration preview summary</title>
  <desc id="desc">Four metric cards show 100 percent local completeness, 99.54 percent live remote receipt with two backfilled records, zero restarts, and 3.87 volt minimum battery. A banner states synthetic teaching preview, not field evidence.</desc>
  <rect width="1000" height="420" rx="24" fill="#071b16"/>
  <rect x="28" y="28" width="944" height="74" rx="16" fill="#0f5132"/>
  <text x="55" y="62" fill="#ffffff" font-family="Arial, sans-serif" font-size="28" font-weight="700">v0.2 · 72-HOUR INTEGRATION PREVIEW</text>
  <text x="55" y="88" fill="#bce8cf" font-family="Arial, sans-serif" font-size="18">SYNTHETIC TEACHING DATA · NOT FIELD EVIDENCE</text>
  <g font-family="Arial, sans-serif">
    <rect x="28" y="126" width="224" height="170" rx="18" fill="#103c32" stroke="#35c87f" stroke-width="2"/>
    <text x="50" y="166" fill="#bce8cf" font-size="17">LOCAL RECORDS</text>
    <text x="50" y="225" fill="#ffffff" font-size="48" font-weight="700">100%</text>
    <text x="50" y="263" fill="#bce8cf" font-size="18">432 / 432</text>
    <rect x="268" y="126" width="224" height="170" rx="18" fill="#103c32" stroke="#35c87f" stroke-width="2"/>
    <text x="290" y="166" fill="#bce8cf" font-size="17">REMOTE LIVE</text>
    <text x="290" y="225" fill="#ffffff" font-size="48" font-weight="700">99.54%</text>
    <text x="290" y="263" fill="#bce8cf" font-size="18">2 locally backfilled</text>
    <rect x="508" y="126" width="224" height="170" rx="18" fill="#103c32" stroke="#35c87f" stroke-width="2"/>
    <text x="530" y="166" fill="#bce8cf" font-size="17">RESTARTS</text>
    <text x="530" y="225" fill="#ffffff" font-size="48" font-weight="700">0</text>
    <text x="530" y="263" fill="#bce8cf" font-size="18">in synthetic model</text>
    <rect x="748" y="126" width="224" height="170" rx="18" fill="#103c32" stroke="#35c87f" stroke-width="2"/>
    <text x="770" y="166" fill="#bce8cf" font-size="17">MIN BATTERY</text>
    <text x="770" y="225" fill="#ffffff" font-size="48" font-weight="700">3.87 V</text>
    <text x="770" y="263" fill="#bce8cf" font-size="18">modelled value</text>
    <rect x="28" y="320" width="944" height="72" rx="16" fill="#e8f5ed"/>
    <circle cx="67" cy="356" r="18" fill="#198754"/>
    <path d="M58 356l7 7 13-16" fill="none" stroke="#fff" stroke-width="5" stroke-linecap="round" stroke-linejoin="round"/>
    <text x="100" y="350" fill="#12372c" font-size="21" font-weight="700">SIMULATED DECISION: PROCEED TO NEXT SUPERVISED TEST</text>
    <text x="100" y="375" fill="#315c50" font-size="16">Not approval, calibration, energy validation or long-term deployment evidence.</text>
  </g>
</svg>
